<svg width="900" height="1080" viewBox="0 0 900 1080" fill="none" xmlns="http://www.w3.org/2000/svg">
<path d="M712 310V950C712 990 736.667 1010 786 1010C836.667 1010 862 980 862 920V440C862 354.667 836.667 310 786 306L712 310Z" fill="#9C3B22"/>
<path d="M11.8721 558.473C11.8721 584.689 33.1561 605.973 59.3721 605.973H140.872V510.973H59.3721C33.1561 510.973 11.8721 532.257 11.8721 558.473Z" fill="#FF7553"/>
<path d="M886.951 555.457C886.951 581.673 865.667 602.957 839.451 602.957H757.951V507.957H839.451C865.667 507.957 886.951 529.241 886.951 555.457Z" fill="#FF7553"/>
<path d="M724.103 700H174.72C126.533 700 87.4121 660.878 87.4121 612.692V362.309C87.4121 314.122 126.534 275.001 174.72 275.001H724.103C772.29 275.001 811.411 314.123 811.411 362.309V612.692C811.411 660.879 772.289 700 724.103 700Z" fill="#FD9F88"/>
<path d="M811.411 362.308V612.691C811.411 660.878 778.549 700 738.072 700H160.75C120.273 700 87.4111 660.878 87.4111 612.691V362.308C87.4111 314.121 120.273 275 160.75 275H738.072C778.549 275 811.411 314.121 811.411 362.308Z" fill="#F5B09F"/>
<path d="M361.411 579.901H517.411V580C517.411 623.049 482.46 658 439.411 658C396.362 658 361.411 623.049 361.411 580V579.901Z" fill="#FF6C48"/>
<path d="M273.171 514C287.807 514 299.671 502.136 299.671 487.5C299.671 472.864 287.807 461 273.171 461C258.536 461 246.671 472.864 246.671 487.5C246.671 502.136 258.536 514 273.171 514Z" fill="black"/>
<path d="M585.652 514C600.288 514 612.152 502.136 612.152 487.5C612.152 472.864 600.288 461 585.652 461C571.017 461 559.152 472.864 559.152 487.5C559.152 502.136 571.017 514 585.652 514Z" fill="black"/>
<path d="M389.743 405.235C389.743 420.689 377.197 433.235 361.743 433.235H230.743C215.289 433.235 202.743 420.689 202.743 405.235C202.743 389.781 215.289 377.235 230.743 377.235H361.743C377.197 377.235 389.743 389.781 389.743 405.235Z" fill="#FB8E71"/>
<path d="M697.258 405.235C697.258 420.689 684.712 433.235 669.258 433.235H538.258C522.804 433.235 510.258 420.689 510.258 405.235C510.258 389.781 522.804 377.235 538.258 377.235H669.258C684.712 377.235 697.258 389.781 697.258 405.235Z" fill="#FB8E71"/>
<path d="M48 440C36 194.667 169.667 70 449 66C728.333 70 862 194.667 850 440C838 385.333 798 354 730 346C635.333 334 541.667 340.667 449 366C356.333 340.667 262.667 334 168 346C100 354 60 385.333 48 440Z" fill="#9C3B22"/>
<path d="M186 310V950C186 990 161.333 1010 112 1010C61.333 1010 36 980 36 920V440C36 354.667 61.333 310 112 306L186 310Z" fill="#9C3B22"/>
<path d="M248 466L226 454" stroke="#1C2530" stroke-width="9" stroke-linecap="round"/>
<path d="M252 480L228 474" stroke="#1C2530" stroke-width="9" stroke-linecap="round"/>
<path d="M610 466L632 454" stroke="#1C2530" stroke-width="9" stroke-linecap="round"/>
<path d="M606 480L630 474" stroke="#1C2530" stroke-width="9" stroke-linecap="round"/>
</svg>
