<svg width="900" height="1080" viewBox="0 0 900 1080" fill="none" xmlns="http://www.w3.org/2000/svg">
<path d="M11.8721 558.473C11.8721 584.689 33.1561 605.973 59.3721 605.973H140.872V510.973H59.3721C33.1561 510.973 11.8721 532.257 11.8721 558.473Z" fill="#9A6240"/>
<path d="M886.951 555.457C886.951 581.673 865.667 602.957 839.451 602.957H757.951V507.957H839.451C865.667 507.957 886.951 529.241 886.951 555.457Z" fill="#9A6240"/>
<path d="M835.874 232.727V480.273C835.874 527.914 797.196 566.592 749.555 566.592H148.267C100.626 566.592 61.948 527.914 61.948 480.273V232.727C61.948 185.086 100.626 146.408 148.267 146.408H749.555C797.196 146.408 835.874 185.086 835.874 232.727Z" fill="#2B1D15"/>
<path d="M724.103 700H174.72C126.533 700 87.4121 660.878 87.4121 612.692V362.309C87.4121 314.122 126.534 275.001 174.72 275.001H724.103C772.29 275.001 811.411 314.123 811.411 362.309V612.692C811.411 660.879 772.289 700 724.103 700Z" fill="#A9744D"/>
<path d="M361.411 579.901H517.411V580C517.411 623.049 482.46 658 439.411 658C396.362 658 361.411 623.049 361.411 580V579.901Z" fill="#7E4D32"/>
<path d="M273.171 514C287.807 514 299.671 502.136 299.671 487.5C299.671 472.864 287.807 461 273.171 461C258.536 461 246.671 472.864 246.671 487.5C246.671 502.136 258.536 514 273.171 514Z" fill="black"/>
<path d="M585.652 514C600.288 514 612.152 502.136 612.152 487.5C612.152 472.864 600.288 461 585.652 461C571.017 461 559.152 472.864 559.152 487.5C559.152 502.136 571.017 514 585.652 514Z" fill="black"/>
<path fill-rule="evenodd" clip-rule="evenodd" d="M567.576 84V107C567.576 153.361 529.937 191 483.576 191H416.424C370.063 191 332.424 153.361 332.424 107V84C332.424 37.6392 370.063 0 416.424 0H483.576C529.937 0 567.576 37.6392 567.576 84Z" fill="#2B1D15"/>
<path d="M248 466L226 454" stroke="#1C2530" stroke-width="9" stroke-linecap="round"/>
<path d="M252 480L228 474" stroke="#1C2530" stroke-width="9" stroke-linecap="round"/>
<path d="M610 466L632 454" stroke="#1C2530" stroke-width="9" stroke-linecap="round"/>
<path d="M606 480L630 474" stroke="#1C2530" stroke-width="9" stroke-linecap="round"/>
<path d="M273 591C330.438 591 377 544.438 377 487C377 429.562 330.438 383 273 383C215.562 383 169 429.562 169 487C169 544.438 215.562 591 273 591Z" fill="#B8743E" fill-opacity="0.12" stroke="#1C2530" stroke-width="16"/>
<path d="M585 591C642.438 591 689 544.438 689 487C689 429.562 642.438 383 585 383C527.562 383 481 429.562 481 487C481 544.438 527.562 591 585 591Z" fill="#B8743E" fill-opacity="0.12" stroke="#1C2530" stroke-width="16"/>
<path d="M377 487H481" stroke="#1C2530" stroke-width="16"/>
</svg>
