<svg width="900" height="1080" viewBox="0 0 900 1080" fill="none" xmlns="http://www.w3.org/2000/svg">
<g clip-path="url(#clip0_2_119)">
<path d="M186 310V530C186 570 161.333 590 112 590C61.333 590 36 560 36 500V440C36 354.667 61.333 310 112 306L186 310Z" fill="#AAB4BF"/>
<path d="M11.872 558.473C11.872 584.689 33.156 605.973 59.372 605.973H140.872V510.973H59.372C33.156 510.973 11.872 532.257 11.872 558.473Z" fill="#FF7553"/>
<path d="M886.951 555.457C886.951 581.673 865.667 602.957 839.451 602.957H757.951V507.957H839.451C865.667 507.957 886.951 529.241 886.951 555.457Z" fill="#FF7553"/>
<path d="M835.874 232.727V480.273C835.874 527.914 797.196 566.592 749.555 566.592H148.267C100.626 566.592 61.948 527.914 61.948 480.273V232.727C61.948 185.086 100.626 146.408 148.267 146.408H749.555C797.196 146.408 835.874 185.086 835.874 232.727Z" fill="#AAB4BF"/>
<path d="M724.103 700H174.72C126.533 700 87.412 660.878 87.412 612.692V362.309C87.412 314.122 126.534 275.001 174.72 275.001H724.103C772.29 275.001 811.411 314.123 811.411 362.309V612.692C811.411 660.879 772.289 700 724.103 700Z" fill="#FD9F88"/>
<path d="M811.411 355.324V585.676C811.411 630.008 778.549 666 738.072 666H160.75C120.273 666 87.411 630.008 87.411 585.676V355.324C87.411 310.992 120.273 275 160.75 275H738.072C778.549 275 811.411 310.992 811.411 355.324Z" fill="#F5B09F"/>
<path d="M361.411 579.901H517.411V580C517.411 623.049 482.46 658 439.411 658C396.362 658 361.411 623.049 361.411 580V579.901Z" fill="#FF6C48"/>
<path d="M273.171 514C287.807 514 299.671 502.136 299.671 487.5C299.671 472.864 287.807 461 273.171 461C258.535 461 246.671 472.864 246.671 487.5C246.671 502.136 258.535 514 273.171 514Z" fill="black"/>
<path d="M585.652 514C600.288 514 612.152 502.136 612.152 487.5C612.152 472.864 600.288 461 585.652 461C571.016 461 559.152 472.864 559.152 487.5C559.152 502.136 571.016 514 585.652 514Z" fill="black"/>
<path d="M389.154 409.235C389.154 424.689 376.608 437.235 361.154 437.235H230.154C214.7 437.235 202.154 424.689 202.154 409.235C202.154 393.781 214.7 381.235 230.154 381.235H361.154C376.608 381.235 389.154 393.781 389.154 409.235Z" fill="#FB8E71"/>
<path d="M696.669 409.235C696.669 424.689 684.123 437.235 668.669 437.235H537.669C522.215 437.235 509.669 424.689 509.669 409.235C509.669 393.781 522.215 381.235 537.669 381.235H668.669C684.123 381.235 696.669 393.781 696.669 409.235Z" fill="#FB8E71"/>
<path d="M380.154 399.235C380.154 414.689 367.608 427.235 352.154 427.235H221.154C205.7 427.235 193.154 414.689 193.154 399.235C193.154 383.781 205.7 371.235 221.154 371.235H352.154C367.608 371.235 380.154 383.781 380.154 399.235Z" fill="#AAB4BF"/>
<path d="M687.669 399.235C687.669 414.689 675.123 427.235 659.669 427.235H528.669C513.215 427.235 500.669 414.689 500.669 399.235C500.669 383.781 513.215 371.235 528.669 371.235H659.669C675.123 371.235 687.669 383.781 687.669 399.235Z" fill="#AAB4BF"/>
<path d="M712 310V530C712 570 736.667 590 786 590C836.667 590 862 560 862 500V440C862 354.667 836.667 310 786 306L712 310Z" fill="#AAB4BF"/>
<path d="M48 440C36 194.667 169.667 70 449 66C728.333 70 862 194.667 850 440C838 385.333 798 354 730 346C635.333 334 541.667 340.667 449 366C356.333 340.667 262.667 334 168 346C100 354 60 385.333 48 440Z" fill="#AAB4BF"/>
<path d="M449 138C502.019 138 545 95.0193 545 42C545 -11.0193 502.019 -54 449 -54C395.981 -54 353 -11.0193 353 42C353 95.0193 395.981 138 449 138Z" fill="#AAB4BF"/>
<path d="M248 466L226 454" stroke="#1C2530" stroke-width="9" stroke-linecap="round"/>
<path d="M252 480L228 474" stroke="#1C2530" stroke-width="9" stroke-linecap="round"/>
<path d="M610 466L632 454" stroke="#1C2530" stroke-width="9" stroke-linecap="round"/>
<path d="M606 480L630 474" stroke="#1C2530" stroke-width="9" stroke-linecap="round"/>
<path fill-rule="evenodd" clip-rule="evenodd" d="M378 444V526C378 544.765 362.765 560 344 560H202C183.235 560 168 544.765 168 526V444C168 425.235 183.235 410 202 410H344C362.765 410 378 425.235 378 444Z" fill="#34537A" fill-opacity="0.1" stroke="#1C2530" stroke-width="15"/>
<path fill-rule="evenodd" clip-rule="evenodd" d="M690 444V526C690 544.765 674.765 560 656 560H514C495.235 560 480 544.765 480 526V444C480 425.235 495.235 410 514 410H656C674.765 410 690 425.235 690 444Z" fill="#34537A" fill-opacity="0.1" stroke="#1C2530" stroke-width="15"/>
<path d="M378 480H480" stroke="#1C2530" stroke-width="15"/>
</g>
<defs>
<clipPath id="clip0_2_119">
<rect width="900" height="1080" fill="white"/>
</clipPath>
</defs>
</svg>
