<svg width="900" height="1080" viewBox="0 0 900 1080" fill="none" xmlns="http://www.w3.org/2000/svg">
<path d="M11.872 558.473C11.872 584.689 33.156 605.973 59.372 605.973H140.872V510.973H59.372C33.156 510.973 11.872 532.257 11.872 558.473Z" fill="#D68F5F"/>
<path d="M886.951 555.457C886.951 581.673 865.667 602.957 839.451 602.957H757.951V507.957H839.451C865.667 507.957 886.951 529.241 886.951 555.457Z" fill="#D68F5F"/>
<path d="M835.874 232.727V480.273C835.874 527.914 797.196 566.592 749.555 566.592H148.267C100.626 566.592 61.948 527.914 61.948 480.273V232.727C61.948 185.086 100.626 146.408 148.267 146.408H749.555C797.196 146.408 835.874 185.086 835.874 232.727Z" fill="#C8501F"/>
<path d="M724.103 700H174.72C126.533 700 87.412 660.878 87.412 612.692V362.309C87.412 314.122 126.534 275.001 174.72 275.001H724.103C772.29 275.001 811.411 314.123 811.411 362.309V612.692C811.411 660.879 772.289 700 724.103 700Z" fill="#CF9460"/>
<path d="M361.411 579.901H517.411V580C517.411 623.049 482.46 658 439.411 658C396.362 658 361.411 623.049 361.411 580V579.901Z" fill="#E0533A"/>
<path d="M273.171 514C287.807 514 299.671 502.136 299.671 487.5C299.671 472.864 287.807 461 273.171 461C258.535 461 246.671 472.864 246.671 487.5C246.671 502.136 258.535 514 273.171 514Z" fill="black"/>
<path d="M585.652 514C600.288 514 612.152 502.136 612.152 487.5C612.152 472.864 600.288 461 585.652 461C571.016 461 559.152 472.864 559.152 487.5C559.152 502.136 571.016 514 585.652 514Z" fill="black"/>
<path d="M403.008 401.721C403.008 405.868 393.346 409.235 381.445 409.235H280.563C268.662 409.235 259.001 405.868 259.001 401.721C259.001 397.574 268.662 394.207 280.563 394.207H381.445C393.346 394.207 403.008 397.574 403.008 401.721Z" fill="#C8501F"/>
<path d="M639.822 401.721C639.822 405.868 630.16 409.235 618.259 409.235H517.377C505.476 409.235 495.815 405.868 495.815 401.721C495.815 397.574 505.476 394.207 517.377 394.207H618.259C630.16 394.207 639.822 397.574 639.822 401.721Z" fill="#C8501F"/>
<path d="M48 440C36 194.667 169.667 70 449 66C728.333 70 862 194.667 850 440C838 385.333 798 354 730 346C635.333 334 541.667 340.667 449 366C356.333 340.667 262.667 334 168 346C100 354 60 385.333 48 440Z" fill="#C8501F"/>
<path d="M186 310V950C186 990 161.333 1010 112 1010C61.333 1010 36 980 36 920V440C36 354.667 61.333 310 112 306L186 310Z" fill="#C8501F"/>
<path d="M712 310V950C712 990 736.667 1010 786 1010C836.667 1010 862 980 862 920V440C862 354.667 836.667 310 786 306L712 310Z" fill="#C8501F"/>
<path d="M248 466L226 454" stroke="#1C2530" stroke-width="9" stroke-linecap="round"/>
<path d="M252 480L228 474" stroke="#1C2530" stroke-width="9" stroke-linecap="round"/>
<path d="M610 466L632 454" stroke="#1C2530" stroke-width="9" stroke-linecap="round"/>
<path d="M606 480L630 474" stroke="#1C2530" stroke-width="9" stroke-linecap="round"/>
<path d="M200 564C206.627 564 212 558.627 212 552C212 545.373 206.627 540 200 540C193.373 540 188 545.373 188 552C188 558.627 193.373 564 200 564Z" fill="#CF9460" fill-opacity="0.6"/>
<path d="M244 592C250.627 592 256 586.627 256 580C256 573.373 250.627 568 244 568C237.373 568 232 573.373 232 580C232 586.627 237.373 592 244 592Z" fill="#CF9460" fill-opacity="0.6"/>
<path d="M654 564C660.627 564 666 558.627 666 552C666 545.373 660.627 540 654 540C647.373 540 642 545.373 642 552C642 558.627 647.373 564 654 564Z" fill="#CF9460" fill-opacity="0.6"/>
<path d="M610 592C616.627 592 622 586.627 622 580C622 573.373 616.627 568 610 568C603.373 568 598 573.373 598 580C598 586.627 603.373 592 610 592Z" fill="#CF9460" fill-opacity="0.6"/>
</svg>
