<svg width="876" height="975" viewBox="0 0 876 975" fill="none" xmlns="http://www.w3.org/2000/svg">
<path d="M337.378 936.809C333.076 940.759 330.378 946.429 330.378 952.724V974.328H434.378V936.855H337.378V936.809Z" fill="black"/>
<path d="M434.378 841.52H337.378V936.854H434.378V841.52Z" fill="#C47F53"/>
<path d="M534.378 936.809C538.68 940.759 541.378 946.429 541.378 952.724V974.328H437.378V936.855H534.378V936.809Z" fill="black"/>
<path d="M534.378 841.52H437.378V936.854H534.378V841.52Z" fill="#C47F53"/>
<path d="M605.378 654.854V771.677C605.378 810.113 574.173 841.318 535.737 841.318H336.019C297.583 841.318 266.378 810.113 266.378 771.677V654.854H605.378Z" fill="#E0533A"/>
<path d="M691.756 712.827V833.827C691.756 857.559 672.488 876.827 648.756 876.827H605.756V669.827H648.756C672.488 669.827 691.756 689.095 691.756 712.827Z" fill="#E0A878"/>
<path d="M180 711.827V832.827C180 856.559 199.268 875.827 223 875.827H266V668.827H223C199.268 668.827 180 688.095 180 711.827Z" fill="#E0A878"/>
<path d="M0 513.327C0 539.543 21.284 560.827 47.5 560.827H129V465.827H47.5C21.284 465.827 0 487.111 0 513.327Z" fill="#D68F5F"/>
<path d="M875.079 510.311C875.079 536.527 853.795 557.811 827.579 557.811H746.079V462.811H827.579C853.795 462.811 875.079 484.095 875.079 510.311Z" fill="#D68F5F"/>
<path d="M824.002 187.581V435.127C824.002 482.768 785.324 521.446 737.683 521.446H136.395C88.7542 521.446 50.0762 482.768 50.0762 435.127V187.581C50.0762 139.94 88.7542 101.262 136.395 101.262H737.683C785.324 101.262 824.002 139.94 824.002 187.581Z" fill="#C8501F"/>
<path d="M712.231 654.855H162.848C114.661 654.855 75.54 618.402 75.54 573.504V340.206C75.54 295.307 114.662 258.856 162.848 258.856H712.231C760.418 258.856 799.539 295.308 799.539 340.206V573.504C799.539 618.403 760.417 654.855 712.231 654.855Z" fill="#FF9E77"/>
<path d="M774.278 282.505V522.204C774.278 568.334 743.709 605.786 706.057 605.786H169.022C131.37 605.786 100.801 568.334 100.801 522.204V282.505C100.801 236.374 131.37 198.922 169.022 198.922H706.057C743.709 198.922 774.278 236.374 774.278 282.505Z" fill="#E0A878"/>
<path d="M356.379 506.755H512.379V506.854C512.379 549.903 477.428 584.854 434.379 584.854C391.33 584.854 356.379 549.903 356.379 506.854V506.755Z" fill="#D68F5F"/>
<path d="M50.0762 292.377L824.002 202.413L824.012 202.497C828.251 238.966 658.299 288.73 444.73 313.556C231.161 338.381 54.3251 328.929 50.0859 292.461L50.0762 292.377Z" fill="#B47A00"/>
<path d="M261.299 468.854C275.934 468.854 287.799 456.99 287.799 442.354C287.799 427.719 275.934 415.854 261.299 415.854C246.663 415.854 234.799 427.719 234.799 442.354C234.799 456.99 246.663 468.854 261.299 468.854Z" fill="black"/>
<path d="M573.779 468.854C588.415 468.854 600.279 456.99 600.279 442.354C600.279 427.719 588.415 415.854 573.779 415.854C559.144 415.854 547.279 427.719 547.279 442.354C547.279 456.99 559.144 468.854 573.779 468.854Z" fill="black"/>
<path d="M377.281 364.089C377.281 379.543 364.735 392.089 349.281 392.089H218.281C202.827 392.089 190.281 379.543 190.281 364.089C190.281 348.635 202.827 336.089 218.281 336.089H349.281C364.735 336.089 377.281 348.635 377.281 364.089Z" fill="#94654B"/>
<path d="M684.796 364.089C684.796 379.543 672.25 392.089 656.796 392.089H525.796C510.342 392.089 497.796 379.543 497.796 364.089C497.796 348.635 510.342 336.089 525.796 336.089H656.796C672.25 336.089 684.796 348.635 684.796 364.089Z" fill="#94654B"/>
<path d="M368.281 354.089C368.281 369.543 355.735 382.089 340.281 382.089H209.281C193.827 382.089 181.281 369.543 181.281 354.089C181.281 338.635 193.827 326.089 209.281 326.089H340.281C355.735 326.089 368.281 338.635 368.281 354.089Z" fill="#C8501F"/>
<path d="M675.796 354.089C675.796 369.543 663.25 382.089 647.796 382.089H516.796C501.342 382.089 488.796 369.543 488.796 354.089C488.796 338.635 501.342 326.089 516.796 326.089H647.796C663.25 326.089 675.796 338.635 675.796 354.089Z" fill="#C8501F"/>
<path d="M605.378 654.854H266.378V686.854H605.378V654.854Z" fill="url(#paint0_linear_2_1044)"/>
<path d="M434.378 841.65H337.378V873.65H434.378V841.65Z" fill="url(#paint1_linear_2_1044)"/>
<path d="M534.378 841.65H437.378V873.65H534.378V841.65Z" fill="url(#paint2_linear_2_1044)"/>
<path fill-rule="evenodd" clip-rule="evenodd" d="M49.8689 292.718L36.3131 171.112C31.0954 124.305 65.5521 81.9906 113.211 76.6779L714.728 9.6259C762.388 4.31326 805.316 38.0011 810.534 84.8082L824.09 206.415L49.8689 292.718Z" fill="#FFAD00"/>
<path d="M422.547 80.7429C436.827 79.2343 447.18 66.4351 445.671 52.1552C444.163 37.8753 431.364 27.522 417.084 29.0306C402.804 30.5392 392.451 43.3384 393.959 57.6183C395.468 71.8983 408.267 82.2515 422.547 80.7429Z" fill="#B47A00"/>
<path d="M174.128 518.854C180.755 518.854 186.128 513.482 186.128 506.854C186.128 500.227 180.755 494.854 174.128 494.854C167.501 494.854 162.128 500.227 162.128 506.854C162.128 513.482 167.501 518.854 174.128 518.854Z" fill="#CF9460" fill-opacity="0.6"/>
<path d="M218.128 546.854C224.755 546.854 230.128 541.482 230.128 534.854C230.128 528.227 224.755 522.854 218.128 522.854C211.501 522.854 206.128 528.227 206.128 534.854C206.128 541.482 211.501 546.854 218.128 546.854Z" fill="#CF9460" fill-opacity="0.6"/>
<path d="M656.128 518.854C662.755 518.854 668.128 513.482 668.128 506.854C668.128 500.227 662.755 494.854 656.128 494.854C649.501 494.854 644.128 500.227 644.128 506.854C644.128 513.482 649.501 518.854 656.128 518.854Z" fill="#CF9460" fill-opacity="0.6"/>
<path d="M612.128 546.854C618.755 546.854 624.128 541.482 624.128 534.854C624.128 528.227 618.755 522.854 612.128 522.854C605.501 522.854 600.128 528.227 600.128 534.854C600.128 541.482 605.501 546.854 612.128 546.854Z" fill="#CF9460" fill-opacity="0.6"/>
<defs>
<linearGradient id="paint0_linear_2_1044" x1="266.378" y1="686.854" x2="266.378" y2="654.854" gradientUnits="userSpaceOnUse">
<stop stop-opacity="0"/>
<stop offset="1" stop-opacity="0.34"/>
</linearGradient>
<linearGradient id="paint1_linear_2_1044" x1="337.378" y1="873.65" x2="337.378" y2="841.65" gradientUnits="userSpaceOnUse">
<stop stop-opacity="0"/>
<stop offset="1" stop-opacity="0.34"/>
</linearGradient>
<linearGradient id="paint2_linear_2_1044" x1="437.378" y1="873.65" x2="437.378" y2="841.65" gradientUnits="userSpaceOnUse">
<stop stop-opacity="0"/>
<stop offset="1" stop-opacity="0.34"/>
</linearGradient>
</defs>
</svg>
