<svg width="900" height="1080" viewBox="0 0 900 1080" fill="none" xmlns="http://www.w3.org/2000/svg">
<path d="M11.8721 558.473C11.8721 584.689 33.1561 605.973 59.3721 605.973H140.872V510.973H59.3721C33.1561 510.973 11.8721 532.257 11.8721 558.473Z" fill="#D68F5F"/>
<path d="M886.951 555.457C886.951 581.673 865.667 602.957 839.451 602.957H757.951V507.957H839.451C865.667 507.957 886.951 529.241 886.951 555.457Z" fill="#D68F5F"/>
<path d="M835.874 232.727V480.273C835.874 527.914 797.196 566.592 749.555 566.592H148.267C100.626 566.592 61.9482 527.914 61.9482 480.273V232.727C61.9482 185.086 100.626 146.408 148.267 146.408H749.555C797.196 146.408 835.874 185.086 835.874 232.727Z" fill="#6E4A2C"/>
<path d="M724.103 700H174.72C126.533 700 87.4121 660.878 87.4121 612.692V362.309C87.4121 314.122 126.534 275.001 174.72 275.001H724.103C772.29 275.001 811.411 314.123 811.411 362.309V612.692C811.411 660.879 772.289 700 724.103 700Z" fill="#CF9460"/>
<path d="M811.411 358.297V597.178C811.411 643.151 778.549 680.475 738.072 680.475H160.75C120.273 680.475 87.4111 643.151 87.4111 597.178V358.297C87.4111 312.324 120.273 275 160.75 275H738.072C778.549 275 811.411 312.324 811.411 358.297Z" fill="#E0A878"/>
<path d="M377 591H498V591.071C498 621.993 470.891 647.099 437.5 647.099C404.109 647.099 377 621.993 377 591.071V591Z" fill="#C47F53"/>
<path d="M273.171 514C287.806 514 299.671 502.136 299.671 487.5C299.671 472.864 287.806 461 273.171 461C258.535 461 246.671 472.864 246.671 487.5C246.671 502.136 258.535 514 273.171 514Z" fill="black"/>
<path d="M585.652 514C600.287 514 612.152 502.136 612.152 487.5C612.152 472.864 600.287 461 585.652 461C571.016 461 559.152 472.864 559.152 487.5C559.152 502.136 571.016 514 585.652 514Z" fill="black"/>
<path d="M311.733 53.1498C412.376 40.9122 503.883 112.579 516.121 213.221C519.283 239.225 500.738 262.902 474.736 266.064L60.2499 316.464L38.0916 134.234C34.9297 108.23 53.4743 84.5528 79.4768 81.391L311.733 53.1498Z" fill="#6E4A2C"/>
<path d="M389.154 409.235C389.154 424.689 376.608 437.235 361.154 437.235H230.154C214.7 437.235 202.154 424.689 202.154 409.235C202.154 393.781 214.7 381.235 230.154 381.235H361.154C376.608 381.235 389.154 393.781 389.154 409.235Z" fill="#D29A76"/>
<path d="M696.669 409.235C696.669 424.689 684.123 437.235 668.669 437.235H537.669C522.215 437.235 509.669 424.689 509.669 409.235C509.669 393.781 522.215 381.235 537.669 381.235H668.669C684.123 381.235 696.669 393.781 696.669 409.235Z" fill="#D29A76"/>
<path d="M380.154 399.235C380.154 414.689 367.608 427.235 352.154 427.235H221.154C205.7 427.235 193.154 414.689 193.154 399.235C193.154 383.781 205.7 371.235 221.154 371.235H352.154C367.608 371.235 380.154 383.781 380.154 399.235Z" fill="#6E4A2C"/>
<path d="M687.669 399.235C687.669 414.689 675.123 427.235 659.669 427.235H528.669C513.215 427.235 500.669 414.689 500.669 399.235C500.669 383.781 513.215 371.235 528.669 371.235H659.669C675.123 371.235 687.669 383.781 687.669 399.235Z" fill="#6E4A2C"/>
<path d="M412.875 680.475H462.125V680.525C462.125 702.049 451.091 719.525 437.5 719.525C423.909 719.525 412.875 702.049 412.875 680.525V680.475Z" fill="#6E4A2C"/>
<path d="M273 591C330.438 591 377 544.438 377 487C377 429.562 330.438 383 273 383C215.562 383 169 429.562 169 487C169 544.438 215.562 591 273 591Z" fill="#C9892F" fill-opacity="0.12" stroke="#1C2530" stroke-width="16"/>
<path d="M585 591C642.438 591 689 544.438 689 487C689 429.562 642.438 383 585 383C527.562 383 481 429.562 481 487C481 544.438 527.562 591 585 591Z" fill="#C9892F" fill-opacity="0.12" stroke="#1C2530" stroke-width="16"/>
<path d="M377 487H481" stroke="#1C2530" stroke-width="16"/>
</svg>
