<svg width="900" height="1080" viewBox="0 0 900 1080" fill="none" xmlns="http://www.w3.org/2000/svg">
<path d="M11.8721 558.473C11.8721 584.689 33.1561 605.973 59.3721 605.973H140.872V510.973H59.3721C33.1561 510.973 11.8721 532.257 11.8721 558.473Z" fill="#FF7553"/>
<path d="M886.951 555.457C886.951 581.673 865.667 602.957 839.451 602.957H757.951V507.957H839.451C865.667 507.957 886.951 529.241 886.951 555.457Z" fill="#FF7553"/>
<path d="M835.874 232.727V480.273C835.874 527.914 797.196 566.592 749.555 566.592H148.267C100.626 566.592 61.9482 527.914 61.9482 480.273V232.727C61.9482 185.086 100.626 146.408 148.267 146.408H749.555C797.196 146.408 835.874 185.086 835.874 232.727Z" fill="#9C3B22"/>
<path d="M811.411 362.308V612.692C811.411 660.879 778.549 700 738.072 700H160.75C120.273 700 87.4111 660.879 87.4111 612.692V362.308C87.4111 314.121 120.273 275 160.75 275H738.072C778.549 275 811.411 314.121 811.411 362.308Z" fill="#F5B09F"/>
<path d="M361.411 579.901H517.411V580C517.411 623.049 482.46 658 439.411 658C396.362 658 361.411 623.049 361.411 580V579.901Z" fill="#FF6C48"/>
<path d="M273.171 514C287.806 514 299.671 502.136 299.671 487.5C299.671 472.864 287.806 461 273.171 461C258.535 461 246.671 472.864 246.671 487.5C246.671 502.136 258.535 514 273.171 514Z" fill="black"/>
<path d="M585.652 514C600.287 514 612.152 502.136 612.152 487.5C612.152 472.864 600.287 461 585.652 461C571.016 461 559.152 472.864 559.152 487.5C559.152 502.136 571.016 514 585.652 514Z" fill="black"/>
<path d="M525.25 85.4312V269.003C525.25 295.198 503.983 316.464 477.789 316.464H60.25V132.892C60.25 106.697 81.517 85.4312 107.711 85.4312H525.25Z" fill="#9C3B22"/>
<path d="M389.154 409.235C389.154 424.689 376.608 437.235 361.154 437.235H230.154C214.7 437.235 202.154 424.689 202.154 409.235C202.154 393.781 214.7 381.235 230.154 381.235H361.154C376.608 381.235 389.154 393.781 389.154 409.235Z" fill="#FB8E71"/>
<path d="M696.669 409.235C696.669 424.689 684.123 437.235 668.669 437.235H537.669C522.215 437.235 509.669 424.689 509.669 409.235C509.669 393.781 522.215 381.235 537.669 381.235H668.669C684.123 381.235 696.669 393.781 696.669 409.235Z" fill="#FB8E71"/>
<path d="M380.154 399.235C380.154 414.689 367.608 427.235 352.154 427.235H221.154C205.7 427.235 193.154 414.689 193.154 399.235C193.154 383.781 205.7 371.235 221.154 371.235H352.154C367.608 371.235 380.154 383.781 380.154 399.235Z" fill="#9C3B22"/>
<path d="M687.669 399.235C687.669 414.689 675.123 427.235 659.669 427.235H528.669C513.215 427.235 500.669 414.689 500.669 399.235C500.669 383.781 513.215 371.235 528.669 371.235H659.669C675.123 371.235 687.669 383.781 687.669 399.235Z" fill="#9C3B22"/>
<path d="M273 591C330.438 591 377 544.438 377 487C377 429.562 330.438 383 273 383C215.562 383 169 429.562 169 487C169 544.438 215.562 591 273 591Z" fill="#B8743E" fill-opacity="0.12" stroke="#1C2530" stroke-width="16"/>
<path d="M585 591C642.438 591 689 544.438 689 487C689 429.562 642.438 383 585 383C527.562 383 481 429.562 481 487C481 544.438 527.562 591 585 591Z" fill="#B8743E" fill-opacity="0.12" stroke="#1C2530" stroke-width="16"/>
<path d="M377 487H481" stroke="#1C2530" stroke-width="16"/>
</svg>
