<svg width="900" height="1080" viewBox="0 0 900 1080" fill="none" xmlns="http://www.w3.org/2000/svg">
<path d="M11.8721 558.473C11.8721 584.689 33.1561 605.973 59.3721 605.973H140.872V510.973H59.3721C33.1561 510.973 11.8721 532.257 11.8721 558.473Z" fill="#FF7553"/>
<path d="M886.951 555.457C886.951 581.673 865.667 602.957 839.451 602.957H757.951V507.957H839.451C865.667 507.957 886.951 529.241 886.951 555.457Z" fill="#FF7553"/>
<path d="M724.103 700H174.72C126.533 700 87.412 660.878 87.412 612.692V362.309C87.412 314.122 126.534 275.001 174.72 275.001H724.103C772.29 275.001 811.411 314.123 811.411 362.309V612.692C811.411 660.879 772.289 700 724.103 700Z" fill="#FD9F88"/>
<path d="M811.411 362.308V612.691C811.411 660.878 778.549 700 738.072 700H160.75C120.273 700 87.411 660.878 87.411 612.691V362.308C87.411 314.121 120.273 275 160.75 275H738.072C778.549 275 811.411 314.121 811.411 362.308Z" fill="#F5B09F"/>
<path d="M361.411 579.901H517.411V580C517.411 623.049 482.46 658 439.411 658C396.362 658 361.411 623.049 361.411 580V579.901Z" fill="#FF6C48"/>
<path d="M273.171 514C287.807 514 299.671 502.136 299.671 487.5C299.671 472.864 287.807 461 273.171 461C258.535 461 246.671 472.864 246.671 487.5C246.671 502.136 258.535 514 273.171 514Z" fill="black"/>
<path d="M585.652 514C600.288 514 612.152 502.136 612.152 487.5C612.152 472.864 600.288 461 585.652 461C571.016 461 559.152 472.864 559.152 487.5C559.152 502.136 571.016 514 585.652 514Z" fill="black"/>
<path d="M389.154 409.235C389.154 424.689 376.608 437.235 361.154 437.235H230.154C214.7 437.235 202.154 424.689 202.154 409.235C202.154 393.781 214.7 381.235 230.154 381.235H361.154C376.608 381.235 389.154 393.781 389.154 409.235Z" fill="#FB8E71"/>
<path d="M696.669 409.235C696.669 424.689 684.123 437.235 668.669 437.235H537.669C522.215 437.235 509.669 424.689 509.669 409.235C509.669 393.781 522.215 381.235 537.669 381.235H668.669C684.123 381.235 696.669 393.781 696.669 409.235Z" fill="#FB8E71"/>
<path d="M380.154 399.235C380.154 414.689 367.608 427.235 352.154 427.235H221.154C205.7 427.235 193.154 414.689 193.154 399.235C193.154 383.781 205.7 371.235 221.154 371.235H352.154C367.608 371.235 380.154 383.781 380.154 399.235Z" fill="#1D3144"/>
<path d="M687.669 399.235C687.669 414.689 675.123 427.235 659.669 427.235H528.669C513.215 427.235 500.669 414.689 500.669 399.235C500.669 383.781 513.215 371.235 528.669 371.235H659.669C675.123 371.235 687.669 383.781 687.669 399.235Z" fill="#1D3144"/>
<path d="M48 440C36 194.667 169.667 70 449 66C728.333 70 862 194.667 850 440C838 385.333 798 354 730 346C635.333 334 541.667 340.667 449 366C356.333 340.667 262.667 334 168 346C100 354 60 385.333 48 440Z" fill="#1D3144"/>
<path d="M107.163 307.87V522.946C107.163 541.648 95.6296 551 72.5636 551C48.8739 551 37.0293 536.973 37.0293 508.919V368.652C37.0293 328.754 48.8739 307.87 72.5636 306L107.163 307.87Z" fill="#1D3144"/>
<path d="M712 309.214V678.794C712 710.931 736.667 727 786 727C836.667 727 862 702.897 862 654.691V413.66C862 345.101 836.667 309.214 786 306L712 309.214Z" fill="#1D3144"/>
<path d="M248 466L226 454" stroke="#1C2530" stroke-width="9" stroke-linecap="round"/>
<path d="M252 480L228 474" stroke="#1C2530" stroke-width="9" stroke-linecap="round"/>
<path d="M610 466L632 454" stroke="#1C2530" stroke-width="9" stroke-linecap="round"/>
<path d="M606 480L630 474" stroke="#1C2530" stroke-width="9" stroke-linecap="round"/>
<path d="M273 591C330.438 591 377 544.438 377 487C377 429.562 330.438 383 273 383C215.562 383 169 429.562 169 487C169 544.438 215.562 591 273 591Z" fill="#2F9E8F" fill-opacity="0.12" stroke="#1C2530" stroke-width="16"/>
<path d="M585 591C642.438 591 689 544.438 689 487C689 429.562 642.438 383 585 383C527.562 383 481 429.562 481 487C481 544.438 527.562 591 585 591Z" fill="#2F9E8F" fill-opacity="0.12" stroke="#1C2530" stroke-width="16"/>
<path d="M377 487H481" stroke="#1C2530" stroke-width="16"/>
</svg>
