<svg width="876" height="655" viewBox="0 0 876 655" fill="none" xmlns="http://www.w3.org/2000/svg">
<path d="M0 513.328C0 539.544 21.284 560.828 47.5 560.828H129V465.828H47.5C21.284 465.828 0 487.112 0 513.328Z" fill="#D68F5F"/>
<path d="M875.079 510.312C875.079 536.528 853.795 557.812 827.579 557.812H746.079V462.812H827.579C853.795 462.812 875.079 484.096 875.079 510.312Z" fill="#D68F5F"/>
<path d="M824.002 187.582V435.128C824.002 482.769 785.324 521.447 737.683 521.447H136.395C88.7537 521.447 50.0757 482.769 50.0757 435.128V187.582C50.0757 139.941 88.7537 101.263 136.395 101.263H737.683C785.324 101.263 824.002 139.941 824.002 187.582Z" fill="#C8501F"/>
<path d="M712.231 654.855H162.848C114.661 654.855 75.54 618.403 75.54 573.505V340.206C75.54 295.308 114.662 258.856 162.848 258.856H712.231C760.418 258.856 799.539 295.308 799.539 340.206V573.505C799.539 618.404 760.417 654.855 712.231 654.855Z" fill="#FF9E77"/>
<path d="M774.278 282.505V522.204C774.278 568.335 743.709 605.787 706.057 605.787H169.022C131.37 605.787 100.801 568.335 100.801 522.204V282.505C100.801 236.374 131.37 198.922 169.022 198.922H706.057C743.709 198.922 774.278 236.374 774.278 282.505Z" fill="#E0A878"/>
<path d="M356.378 506.756H512.378V506.855C512.378 549.904 477.427 584.855 434.378 584.855C391.329 584.855 356.378 549.904 356.378 506.855V506.756Z" fill="#D68F5F"/>
<path d="M50.0767 292.377L824.003 202.414L824.012 202.498C828.252 238.966 658.299 288.73 444.73 313.556C231.162 338.382 54.3256 328.93 50.0864 292.461L50.0767 292.377Z" fill="#B47A00"/>
<path d="M261.299 468.855C275.934 468.855 287.799 456.991 287.799 442.355C287.799 427.719 275.934 415.855 261.299 415.855C246.663 415.855 234.799 427.719 234.799 442.355C234.799 456.991 246.663 468.855 261.299 468.855Z" fill="black"/>
<path d="M573.78 468.855C588.415 468.855 600.28 456.991 600.28 442.355C600.28 427.719 588.415 415.855 573.78 415.855C559.144 415.855 547.28 427.719 547.28 442.355C547.28 456.991 559.144 468.855 573.78 468.855Z" fill="black"/>
<path d="M377.282 364.09C377.282 379.544 364.736 392.09 349.282 392.09H218.282C202.828 392.09 190.282 379.544 190.282 364.09C190.282 348.636 202.828 336.09 218.282 336.09H349.282C364.736 336.09 377.282 348.636 377.282 364.09Z" fill="#94654B"/>
<path d="M684.797 364.09C684.797 379.544 672.251 392.09 656.797 392.09H525.797C510.343 392.09 497.797 379.544 497.797 364.09C497.797 348.636 510.343 336.09 525.797 336.09H656.797C672.251 336.09 684.797 348.636 684.797 364.09Z" fill="#94654B"/>
<path d="M368.282 354.09C368.282 369.544 355.736 382.09 340.282 382.09H209.282C193.828 382.09 181.282 369.544 181.282 354.09C181.282 338.636 193.828 326.09 209.282 326.09H340.282C355.736 326.09 368.282 338.636 368.282 354.09Z" fill="#C8501F"/>
<path d="M675.797 354.09C675.797 369.544 663.251 382.09 647.797 382.09H516.797C501.343 382.09 488.797 369.544 488.797 354.09C488.797 338.636 501.343 326.09 516.797 326.09H647.797C663.251 326.09 675.797 338.636 675.797 354.09Z" fill="#C8501F"/>
<path fill-rule="evenodd" clip-rule="evenodd" d="M49.8693 292.719L36.3136 171.112C31.0959 124.305 65.5526 81.9911 113.212 76.6784L714.729 9.62639C762.388 4.31375 805.317 38.0016 810.534 84.8087L824.09 206.415L49.8693 292.719Z" fill="#FFAD00"/>
<path d="M422.547 80.7434C436.827 79.2348 447.18 66.4356 445.671 52.1557C444.163 37.8758 431.364 27.5225 417.084 29.0311C402.804 30.5397 392.451 43.3389 393.959 57.6188C395.468 71.8988 408.267 82.252 422.547 80.7434Z" fill="#B47A00"/>
<path d="M174.128 518.855C180.755 518.855 186.128 513.482 186.128 506.855C186.128 500.228 180.755 494.855 174.128 494.855C167.501 494.855 162.128 500.228 162.128 506.855C162.128 513.482 167.501 518.855 174.128 518.855Z" fill="#CF9460" fill-opacity="0.6"/>
<path d="M218.128 546.855C224.755 546.855 230.128 541.482 230.128 534.855C230.128 528.228 224.755 522.855 218.128 522.855C211.501 522.855 206.128 528.228 206.128 534.855C206.128 541.482 211.501 546.855 218.128 546.855Z" fill="#CF9460" fill-opacity="0.6"/>
<path d="M656.128 518.855C662.755 518.855 668.128 513.482 668.128 506.855C668.128 500.228 662.755 494.855 656.128 494.855C649.501 494.855 644.128 500.228 644.128 506.855C644.128 513.482 649.501 518.855 656.128 518.855Z" fill="#CF9460" fill-opacity="0.6"/>
<path d="M612.128 546.855C618.755 546.855 624.128 541.482 624.128 534.855C624.128 528.228 618.755 522.855 612.128 522.855C605.501 522.855 600.128 528.228 600.128 534.855C600.128 541.482 605.501 546.855 612.128 546.855Z" fill="#CF9460" fill-opacity="0.6"/>
</svg>
